<svg width="379" height="379" viewBox="0 0 379 379" fill="none" xmlns="http://www.w3.org/2000/svg">
<circle cx="189.5" cy="189.5" r="180" fill="#2C2743" stroke="black" stroke-width="19"/>
<path d="M132.435 69.7415C134.69 63.6472 143.31 63.6472 145.565 69.7415L159.49 107.374C160.199 109.29 161.71 110.801 163.626 111.51L201.258 125.435C207.353 127.69 207.353 136.31 201.258 138.565L163.626 152.49C161.71 153.199 160.199 154.71 159.49 156.626L145.565 194.258C143.31 200.353 134.69 200.353 132.435 194.258L118.51 156.626C117.801 154.71 116.29 153.199 114.374 152.49L76.7415 138.565C70.6472 136.31 70.6472 127.69 76.7415 125.435L114.374 111.51C116.29 110.801 117.801 109.29 118.51 107.374L132.435 69.7415Z" fill="#B18CFF"/>
<path d="M84.8168 204.523C86.4366 200.192 92.5634 200.192 94.1832 204.523L101.524 224.152C102.035 225.519 103.118 226.594 104.488 227.096L124.176 234.305C128.551 235.907 128.551 242.093 124.176 243.695L104.488 250.904C103.118 251.406 102.035 252.481 101.524 253.848L94.1832 273.477C92.5634 277.808 86.4366 277.808 84.8168 273.477L77.476 253.848C76.9648 252.481 75.8821 251.406 74.5118 250.904L54.8235 243.695C50.449 242.093 50.449 235.907 54.8235 234.305L74.5118 227.096C75.8821 226.594 76.9648 225.519 77.476 224.152L84.8168 204.523Z" fill="#BDE564"/>
<path d="M194.077 211.044C196.204 204.904 204.822 204.723 207.204 210.769L219.965 243.152C220.714 245.053 222.256 246.532 224.187 247.2L257.076 258.592C263.216 260.719 263.397 269.337 257.351 271.719L224.968 284.48C223.068 285.229 221.589 286.771 220.92 288.702L209.528 321.591C207.401 327.731 198.784 327.912 196.401 321.866L183.64 289.483C182.891 287.583 181.349 286.104 179.419 285.435L146.529 274.043C140.389 271.916 140.208 263.299 146.254 260.916L178.637 248.155C180.538 247.406 182.016 245.864 182.685 243.934L194.077 211.044Z" fill="#58D5FD"/>
<path d="M263.668 113.346C265.795 107.206 274.412 107.025 276.795 113.071L287.58 140.441C288.329 142.342 289.871 143.82 291.802 144.489L319.6 154.118C325.74 156.244 325.921 164.862 319.875 167.245L292.505 178.03C290.604 178.779 289.126 180.321 288.457 182.252L278.828 210.05C276.702 216.19 268.084 216.371 265.701 210.325L254.916 182.955C254.167 181.054 252.625 179.576 250.694 178.907L222.896 169.278C216.756 167.151 216.575 158.534 222.621 156.151L249.991 145.366C251.892 144.617 253.37 143.075 254.039 141.144L263.668 113.346Z" fill="#ED6358"/>
</svg>
